<svg viewBox="0 0 260 300" xmlns="http://www.w3.org/2000/svg">
  <g fill="none" stroke="#3f7d55" stroke-width="6" stroke-linecap="round">
    <path d="M60 45 C20 75, 15 140, 55 175" />
    <path d="M175 220 C215 195, 225 130, 195 90" />
  </g>
  <g>
    <path d="M85 45 L165 45 Q180 45 180 60 L180 205 Q180 220 165 220 L95 220 Q80 220 80 205 L80 60 Q80 45 95 45 Z"
          fill="#fdfdfb" stroke="#3f7d55" stroke-width="6"/>
    <line x1="80" y1="115" x2="180" y2="115" stroke="#3f7d55" stroke-width="6"/>
    <line x1="98" y1="65" x2="98" y2="82" stroke="#3f7d55" stroke-width="7" stroke-linecap="round"/>
    <line x1="98" y1="135" x2="98" y2="152" stroke="#3f7d55" stroke-width="7" stroke-linecap="round"/>
    <rect x="86" y="182" width="88" height="30" rx="6" fill="#fdfdfb" stroke="#3f7d55" stroke-width="5"/>
    <line x1="115" y1="197" x2="145" y2="197" stroke="#3f7d55" stroke-width="5" stroke-linecap="round"/>
    <path d="M105 122 Q100 150 108 172 L140 172 Q148 150 143 122 Z" fill="#5faa63"/>
    <circle cx="150" cy="140" r="16" fill="#e0574a"/>
    <path d="M150 124 Q154 118 160 122" stroke="#3f7d55" stroke-width="4" fill="none"/>
    <path d="M160 128 Q158 152 168 168 L140 168 Q148 150 146 130 Z" fill="#f2a53c"/>
  </g>
  <g>
    <path d="M155 20 Q210 5 235 45 Q250 75 220 95 L225 112 L200 92 Q160 100 145 65 Q140 40 155 20 Z"
          fill="#fdfdfb" stroke="#3f7d55" stroke-width="5"/>
    <path d="M178 55 Q178 40 192 40 Q206 40 206 55 L206 62 L178 62 Z" fill="#fdfdfb" stroke="#3f7d55" stroke-width="4"/>
    <line x1="176" y1="62" x2="208" y2="62" stroke="#3f7d55" stroke-width="4" stroke-linecap="round"/>
    <g stroke="#f2a53c" stroke-width="3" stroke-linecap="round">
      <path d="M222 30 L226 22 M230 33 L238 30 M224 40 L232 44"/>
    </g>
  </g>
  <text x="130" y="258" text-anchor="middle" font-family="Pretendard, 'Malgun Gothic', sans-serif" font-weight="700" font-size="34">
    <tspan fill="#2f5d40">냉장고</tspan>
    <tspan fill="#2f5d40"> </tspan>
    <tspan fill="#e8892c">한끼</tspan>
  </text>
  <text x="130" y="282" text-anchor="middle" font-family="Pretendard, 'Malgun Gothic', sans-serif" font-size="13" fill="#7a7a72">
    <tspan fill="#3f7d55" font-weight="600">AI</tspan>가 제안하는 건강한 오늘의 식단
  </text>
</svg>
